<svg width="11" height="13" viewBox="0 0 11 13" fill="none" xmlns="http://www.w3.org/2000/svg">
<g clip-path="url(#clip0_177_2)">
<path d="M3.60868 10.7184L0.560079 7.11548C0.202121 6.69244 0.202121 6.00642 0.560079 5.58338L0.884121 5.20042C1.24208 4.77738 1.82256 4.77738 2.18052 5.20042L4.35416 7.76927L8.81947 2.49209C9.17743 2.06904 9.75791 2.06904 10.1159 2.49209L10.4399 2.87504C10.6622 3.13775 10.7465 3.50175 10.6927 3.84138C10.6924 3.84299 10.6922 3.8446 10.6919 3.84622C10.6574 4.05925 10.5704 4.25292 10.4404 4.40661L5.09964 10.7184C4.90026 10.9537 4.63558 11.0835 4.35416 11.0835C4.35031 11.0835 4.34648 11.0833 4.34267 11.0831C4.07678 11.08 3.81178 10.9581 3.60868 10.7184Z" fill="black" stroke="black" stroke-width="2" stroke-miterlimit="10" stroke-linejoin="round"/>
<path d="M3.60868 10.7184L0.560079 7.11548C0.202121 6.69244 0.202121 6.00642 0.560079 5.58338L0.884121 5.20042C1.24208 4.77738 1.82256 4.77738 2.18052 5.20042L4.35416 7.76927L8.81947 2.49209C9.17743 2.06904 9.75791 2.06904 10.1159 2.49209L10.4399 2.87504C10.6622 3.13775 10.7465 3.50175 10.6927 3.84138C10.6599 4.04856 10.3464 4.24681 10.2107 4.40715L5.09964 10.4475C4.89385 10.6907 4.62412 11.0832 4.35416 11.0832C4.08443 11.0835 3.8147 10.9616 3.60868 10.7184Z" fill="white"/>
<path d="M4.35416 11.0835C4.22743 11.0835 4.12499 10.9625 4.12499 10.8127C4.12499 10.6629 4.22743 10.5419 4.35416 10.5419C4.51297 10.5419 4.66285 10.4685 4.7756 10.3352L10.1161 4.02399C10.1814 3.94653 10.2252 3.84903 10.2419 3.74178C10.2655 3.59472 10.3863 3.49966 10.5093 3.52511C10.6338 3.55274 10.7158 3.69411 10.6927 3.84118C10.6588 4.05622 10.5714 4.25176 10.4404 4.40668L5.09964 10.7184C4.90026 10.9538 4.63558 11.0835 4.35416 11.0835Z" fill="#324561"/>
</g>
<defs>
<clipPath id="clip0_177_2">
<rect width="11" height="13" fill="white"/>
</clipPath>
</defs>
</svg>
